inDegrees=no
num_controls=7
num_derivatives=13
num_iterations=143
num_multipliers=7
num_parameters=0
num_slacks=7
num_states=26
objective=0.448277
objective_accelerations=0.049053
objective_balance=0.007450
objective_effort=0.036466
objective_height=0.350372
objective_ligament=0.004936
solver_duration=2064.769247
status=Solve_Succeeded
success=true
DataType=double
version=3
OpenSimVersion=4.5
endheader
time	/jointset/ground_pelvis/pelvis_tilt/value	/jointset/ground_pelvis/pelvis_tx/value	/jointset/ground_pelvis/pelvis_ty/value	/jointset/hip_l/hip_flexion_l/value	/jointset/hip_l/hip_adduction_l/value	/jointset/hip_l/hip_rotation_l/value	/jointset/back/lumbar_extension/value	/jointset/patellofemoral_l/patellar_flexion_l/value	/jointset/knee_l/knee_flexion_l/value	/jointset/knee_l/knee_adduction_l/value	/jointset/knee_l/knee_rotation_l/value	/jointset/ankle_l/ankle_angle_l/value	/jointset/subtalar_l/subtalar_angle_l/value	/jointset/ground_pelvis/pelvis_tilt/speed	/jointset/ground_pelvis/pelvis_tx/speed	/jointset/ground_pelvis/pelvis_ty/speed	/jointset/hip_l/hip_flexion_l/speed	/jointset/hip_l/hip_adduction_l/speed	/jointset/hip_l/hip_rotation_l/speed	/jointset/back/lumbar_extension/speed	/jointset/patellofemoral_l/patellar_flexion_l/speed	/jointset/knee_l/knee_flexion_l/speed	/jointset/knee_l/knee_adduction_l/speed	/jointset/knee_l/knee_rotation_l/speed	/jointset/ankle_l/ankle_angle_l/speed	/jointset/subtalar_l/subtalar_angle_l/speed	/forceset/tau_hip_flexion_l	/forceset/tau_hip_adduction_l	/forceset/tau_hip_rotation_l	/forceset/tau_knee_flexion_l	/forceset/tau_ankle_angle_l	/forceset/tau_subtalar_angle_l	/forceset/tau_lumbar_extension	lambda_cid13_p0	lambda_cid13_p1	lambda_cid13_p2	lambda_cid13_p3	lambda_cid13_p4	lambda_cid13_p5	lambda_cid14_p0	/jointset/ground_pelvis/pelvis_tilt/accel	/jointset/ground_pelvis/pelvis_tx/accel	/jointset/ground_pelvis/pelvis_ty/accel	/jointset/hip_l/hip_flexion_l/accel	/jointset/hip_l/hip_adduction_l/accel	/jointset/hip_l/hip_rotation_l/accel	/jointset/back/lumbar_extension/accel	/jointset/patellofemoral_l/patellar_flexion_l/accel	/jointset/knee_l/knee_flexion_l/accel	/jointset/knee_l/knee_adduction_l/accel	/jointset/knee_l/knee_rotation_l/accel	/jointset/ankle_l/ankle_angle_l/accel	/jointset/subtalar_l/subtalar_angle_l/accel	gamma_cid13_p0	gamma_cid13_p1	gamma_cid13_p2	gamma_cid13_p3	gamma_cid13_p4	gamma_cid13_p5	gamma_cid14_p0
0.5	-0.4440104057840218	-0.0737803321028019	0.7648090273802227	1.256719359200498	-0.3098520114463092	-0.04899219980186584	-0.3287043100555925	0.6813562872252145	0.681356287225276	-0.173454392641809	0.1745089305037457	0.03410429393221075	-0.0496769682966526	-0.7375153470008321	-0.2718207195234746	-0.4916845121787407	2.362649098562031	-0.03538957022682809	0.6142569337168127	-0.6229043752500054	1.762055441682248	1.762055441682332	-0.005768266083347987	0.0005895390484193604	0.2301594404700594	-0.01075319273502601	-0.2434609816584645	0.01683614761152034	-0.02144657482021199	-0.2032375642436099	0.1436700851612285	0.04255783949039463	0.219329393911733	7.311245702063907	-22.52979986664996	6.349780156607597	-5.430967948336263	-607.5621386520871	-59.78812815551557	-28.74446205862733	0.6151194899342399	0.6967414643777845	-0.3157052008597823	-1.5108077045596	0.5946703831649647	-0.2908710974972534	1.769785668373713	-1.078886206819698	-1.078886206819699	0.03005497351282908	-0.02546852187937521	-0.1201777146630305	0.5751758842867922	-2.49923265674353e-07	-8.178255242611107e-07	1.246890138480744e-06	4.860653629925774e-08	-3.398456995588616e-07	2.887281078157944e-08	-2.92785023915682e-07
0.51	-0.4513532314515269	-0.0764634181201909	0.7598774182714806	1.280266203280698	-0.3101776283816396	-0.04286428108412097	-0.334844971152961	0.6989200938648106	0.698920093864846	-0.1735134557881898	0.174513989990683	0.03639889810003812	-0.04975733542939837	-0.7309569784944587	-0.2647762474658537	-0.4945385902174669	2.346421779477691	-0.02974193680023344	0.6112310849473871	-0.6051698337508901	1.750476441966315	1.750476441966362	-0.006020093247722742	0.0004360873144527138	0.2287130459958737	-0.005329513328781441	-0.2514804538959228	0.01745541720118933	-0.02155840553905977	-0.2045181136715014	0.143560107267961	0.04309433451551959	0.2255216745279476	7.036413706415825	-22.6076683540891	6.239962721653289	-5.367309801455288	-611.9633599364419	-59.386987686797	-27.72750640986479	0.690077854586063	0.7113570798277483	-0.2555259034063374	-1.723432083270169	0.5484780600030418	-0.3230914761673318	1.783989961602877	-1.231759039181713	-1.23175903918747	-0.04920635616937841	-0.008555204447204451	-0.1641231683923664	0.5245035703705386	-3.061285652401112e-07	-6.46897021034353e-07	1.518607398215478e-06	1.129290580906644e-07	-3.645368470925335e-07	8.406597961880068e-08	-3.165438185538783e-07
0.52	-0.4586276969692492	-0.079075448016329	0.754920215022746	1.303641826555475	-0.3104470353351846	-0.03676955079597144	-0.3408065465211541	0.7163612400702084	0.716361240070215	-0.1735743181651682	0.1745178606192145	0.03867758775220433	-0.04978375784776625	-0.7238433170441981	-0.2576094952732903	-0.4968033401772872	2.328404937477392	-0.02414757386978542	0.6076192477978768	-0.5870872294148772	1.737523354842314	1.737523354842322	-0.006128112202367365	0.0003517673688109123	0.2269765373378469	3.575014055298622e-05	-0.2594999261333816	0.01807468679085674	-0.02167023625793123	-0.2057986630993906	0.1434501293746929	0.04363082954064283	0.2317139551441625	6.757008292073161	-22.68844779913744	6.134849868200361	-5.317808321348732	-616.4542939953991	-59.06416946889064	-26.7047847157144	0.7261780787117031	0.7211974913662849	-0.1978395850785948	-1.868712287751434	0.5840162839356379	-0.4080687735141783	1.839398235753246	-1.353703688433536	-1.353703688433523	0.05881661545885727	-0.0116421642144085	-0.1782005514312323	0.5634926969047647	-3.005503718234555e-07	-5.610070629144737e-07	1.505141628756222e-06	1.235938306623637e-07	-3.464189711040467e-07	1.183810443076334e-07	-3.049602721949209e-07
0.53	-0.4658284072637786	-0.08161527133332348	0.7499433288399849	1.326828579371952	-0.3106607923985309	-0.03071345475569813	-0.3465856372345168	0.7336660323774973	0.733666032377512	-0.1736357009196486	0.1745209287884287	0.04093748779501845	-0.04975684930856782	-0.7162128640890275	-0.2503409031457267	-0.4984724249765996	2.308655076732172	-0.01862622467554515	0.6035246091520722	-0.5686892916776748	1.723206169835646	1.723206169835698	-0.006152392061633686	0.0002655877122232095	0.2249538601056739	0.00532156475245943	-0.2672899219688389	0.01841910902479364	-0.02176594403398431	-0.207274528835109	0.1435387882085054	0.04400074523007955	0.2376839818336207	6.538315053487771	-22.70953096434178	6.022525025528955	-5.259470533261629	-620.8985931133237	-58.67559334832962	-25.68231697986003	0.7943241434537278	0.7318556595409655	-0.1362895981143872	-2.071749655421493	0.5327020673353202	-0.4217284677738917	1.846234779703468	-1.505006648548438	-1.505006648541859	-0.03366533712907051	-0.006867156261570212	-0.2217402225216335	0.5073741302396294	-2.786607611537024e-07	-5.038525073168879e-07	1.411887095691948e-06	1.165531536742921e-07	-3.163890552538849e-07	1.388532099184059e-07	-2.844188974815994e-07
0.54	-0.4729502439808498	-0.08408197561182443	0.7449527824750795	1.349809108243475	-0.3108200344039013	-0.02470061851341466	-0.3521794999231077	0.7508207966863661	0.75082079668639	-0.1736974494828228	0.1745231829031032	0.04317567328282857	-0.04967783296586913	-0.7080686015524968	-0.2429856875745773	-0.4995353766061895	2.287160148486382	-0.01324456227462115	0.5989672881998553	-0.5500416244604831	1.707517755158377	1.707517755158473	-0.006201273941287559	0.0001889564604110113	0.2226336263370489	0.01045731084060766	-0.2750799178042948	0.01876353125873158	-0.02186165181003132	-0.2087503945708286	0.1436274470423178	0.04437066091951737	0.2436540085230801	6.315343939951729	-22.73343522969936	5.914728672353856	-5.218393139723723	-625.4297677160434	-58.3605862187758	-24.66059118482564	0.8289399949837384	0.7385221800834195	-0.07661295113409242	-2.217725787865444	0.55607892527238	-0.5006052347966358	1.889344131751107	-1.627949622553734	-1.627949622553732	0.05389621138134652	-0.009732483259296123	-0.2377118587216357	0.5334789921531186	-2.387244760762669e-07	-4.784903119567334e-07	1.230355632681698e-06	8.992346866264394e-08	-2.73179861258891e-07	1.440098276130265e-07	-2.539667339506833e-07
0.55	-0.4799881922128392	-0.08647476308058798	0.7399546350145934	1.372566297036798	-0.3109259687490333	-0.01873597382533191	-0.3575856642082842	0.7678121298332357	0.767812129833222	-0.1737591548095438	0.1745248894302493	0.04538933800606241	-0.04954799025105501	-0.6994398247477934	-0.2355633616343241	-0.4999914017814084	2.2639986259681	-0.007968974872374301	0.5938872993755878	-0.5311607925614406	1.690531400928091	1.690531400928153	-0.006141481496327145	0.0001563999195211954	0.2200550818420131	0.01548302361297974	-0.2827095522675502	0.01896027744858147	-0.02192678016407887	-0.210236657916546	0.1436962268628793	0.04457315350169602	0.2494479246111752	6.086410257353285	-22.6846201755691	5.796522168375316	-5.126809909585389	-629.8629805591461	-57.93996332376179	-23.6402873802498	0.8920012554819069	0.7453695622073928	-0.01474016651116457	-2.407247107183583	0.5092041698251751	-0.5230591042811079	1.892018720986393	-1.766551845083745	-1.766551845088876	-0.01826834024970707	0.0003435539831928066	-0.2745590125400036	0.4828277100014747	-2.085161065279709e-07	-4.414052906732219e-07	1.097840844460242e-06	7.227332985963058e-08	-2.378767025116158e-07	1.518774410335254e-07	-2.29515017664556e-07
0.5600000000000001	-0.4869374217303281	-0.08879307093770678	0.7349549987291958	1.395083494280264	-0.3109799661157179	-0.01282440170509942	-0.3628021069740693	0.7846270847334387	0.7846270847333873	-0.1738203200320754	0.1745263425506829	0.0475758906308168	-0.04936874835047272	-0.6903248586523592	-0.2280897652456232	-0.4998331415884461	2.239161838514858	-0.00285716658515407	0.5883527746297477	-0.5120973205821752	1.672242105825095	1.672242105825122	-0.006093253103490371	0.000138275118112257	0.2172112066411591	0.02033714799424069	-0.2903391867308046	0.01915702363843217	-0.02199190851812556	-0.2117229212622638	0.1437650066834406	0.04477564608387549	0.2552418406992714	5.851738824248289	-22.63758984615512	5.681786891817888	-5.042513462244932	-634.4006624132988	-57.58246855826797	-22.62240829474453	0.9261778531299175	0.74877626977296	0.04624412250216729	-2.552778774857547	0.523323102267053	-0.5915124191111987	1.925872147795721	-1.888537797095866	-1.888537797095857	0.05158340095661819	-0.006846135363110182	-0.2907779998852748	0.499161313930889	-1.899812356146419e-07	-3.902528782816823e-07	1.024146065985335e-06	6.539864650697863e-08	-2.120607860616026e-07	1.629982493250783e-07	-2.122638380721752e-07
0.5700000000000001	-0.4937931953387744	-0.09103646074065071	0.7299600133149163	1.417344228352014	-0.310983519542226	-0.006970383222885861	-0.3678270732962738	0.801252800094892	0.801252800094844	-0.1738807342153357	0.17452754927224	0.0497327818331531	-0.04914166305446185	-0.6807549974495823	-0.2205863644670152	-0.4990603588127644	2.212718131359168	0.002119604096128715	0.5823842582441395	-0.4928793061027798	1.652689678351345	1.652689678351403	-0.005988746964954816	9.788676728619741e-05	0.2141260732670684	0.02505157459200307	-0.2977477002326432	0.01920927716831497	-0.02202829233437482	-0.2131951854769095	0.1437831970426511	0.04484820855262376	0.2608054283055909	5.605597563605199	-22.53285337775319	5.558685879563803	-4.898113139165148	-638.7814195898607	-57.14922926318842	-21.6081049354404	0.9835960121667275	0.7514089153172235	0.108293231735949	-2.730221966937182	0.4807337483225465	-0.609698199881662	1.922261761402941	-2.020247938500103	-2.020247938495513	-0.01001784695902177	-0.003626363422765819	-0.3235210892526348	0.4532752387554468	-1.715994279870968e-07	-3.431925772755781e-07	9.500068615450308e-07	5.856243455134765e-08	-1.87660029245569e-07	1.714629697622493e-07	-1.9520623929525e-07
0.58	-0.5005510291835301	-0.09320475914912604	0.7249758553037206	1.439332514296005	-0.3109381293224687	-0.001178085294846037	-0.3726593603410062	0.8176766606384087	0.8176766606383675	-0.1739400837506596	0.1745281538745972	0.05185759368513227	-0.04886829511126203	-0.6707369059141992	-0.2130714863519036	-0.4976676609716956	2.184672212962979	0.006931562667956713	0.5760086637946893	-0.4735614650877251	1.631871142238174	1.631871142238262	-0.005880323516860914	1.78512772431157e-05	0.2107953365697109	0.02959367743202689	-0.3051562137344785	0.01926153069820192	-0.02206467615058178	-0.2146674496915599	0.1438013874018623	0.04492077102137645	0.2663690159119129	5.352671239542569	-22.42939768869913	5.438609526403072	-4.755145846604607	-643.279106241201	-56.77413193464403	-20.59878831058481	1.015823919651164	0.7510717370737019	0.1702271355796051	-2.873221022957573	0.4903606803760956	-0.6729280318795987	1.945837454927599	-2.141759524980123	-2.141759524980153	0.05236686286828696	-0.01477556320650749	-0.339898664538634	0.4646965623831758	-1.534169585922007e-07	-3.014615376086458e-07	8.75288869800954e-07	5.177632488020919e-08	-1.651022710226253e-07	1.764685990402253e-07	-1.784007457663601e-07
0.59	-0.5072065567130968	-0.09529790389874011	0.7200087137343041	1.461032563296837	-0.3108453878162587	0.004548138454593069	-0.3772980047834963	0.8338862082263251	0.833886208226237	-0.1739979637614094	0.1745279724650858	0.05394797331617292	-0.04855029974526986	-0.6602986511978601	-0.2055600204043701	-0.4956570490948632	2.155079353288525	0.01158055399190703	0.5691449924609513	-0.4541614532480249	1.609838678880066	1.609838678880136	-0.005687553461893761	-3.420836479370434e-05	0.2072438159940338	0.03396749850102647	-0.3123187347726402	0.01916828568376196	-0.02207805308224355	-0.2161189534879211	0.143825112190861	0.0448663309259798	0.2716938966056048	5.10980082003739	-22.27339129119221	5.311120784613059	-4.591633285988204	-647.5810154282813	-56.32864112079828	-19.5959747551222	1.068298940683457	0.7508100587011365	0.2319884089247339	-3.041076641256415	0.4466609828381679	-0.706897039606646	1.937978572829348	-2.263910499973556	-2.263910499976139	0.00392899930049615	0.002386616177285894	-0.3682894589024163	0.4179867833647659	-1.363329135811127e-07	-2.586034116696766e-07	8.012786250940408e-07	4.594034683016317e-08	-1.437534135015588e-07	1.780735158141911e-07	-1.615896951023324e-07
